<svg xmlns="http://www.w3.org/2000/svg" viewBox="0 0 800 900">
  <!-- 定义样式 -->
  <defs>
    <style>
      .layer-box { fill: #e8e4d9; stroke: #333; stroke-width: 2; }
      .text-title { font-family: 'Georgia', 'Times New Roman', serif; font-size: 72px; font-weight: bold; fill: #000; }
      .text-subtitle { font-family: 'Georgia', 'Times New Roman', serif; font-size: 28px; fill: #000; }
      .text-layer { font-family: 'Courier New', monospace; font-size: 24px; fill: #000; }
      .arrow { fill: #000; }
    </style>
    <!-- 箭头标记 -->
    <marker id="arrowhead" markerWidth="4" markerHeight="4" refX="3.6" refY="1.2" orient="auto">
      <polygon points="0 0, 4 1.2, 0 2.4" fill="#000" />
    </marker>
  </defs>
  
  <!-- Conv1: 11x11 conv, 96, /4, pool/2 -->
  <rect x="420" y="50" width="330" height="80" class="layer-box" rx="3"/>
  <text x="585" y="85" text-anchor="middle" class="text-layer">11x11 conv, 96, /4</text>
  <text x="585" y="110" text-anchor="middle" class="text-layer">pool/2</text>
  
  <!-- 箭头1 -->
  <line x1="585" y1="130" x2="585" y2="160" stroke="#000" stroke-width="1.2" marker-end="url(#arrowhead)"/>
  
  <!-- Conv2: 5x5 conv, 256, pool/2 -->
  <rect x="420" y="170" width="330" height="60" class="layer-box" rx="3"/>
  <text x="585" y="208" text-anchor="middle" class="text-layer">5x5 conv, 256, pool/2</text>
  
  <!-- 箭头2 -->
  <line x1="585" y1="230" x2="585" y2="260" stroke="#000" stroke-width="1.2" marker-end="url(#arrowhead)"/>
  
  <!-- Conv3: 3x3 conv, 384 -->
  <rect x="420" y="270" width="330" height="60" class="layer-box" rx="3"/>
  <text x="585" y="308" text-anchor="middle" class="text-layer">3x3 conv, 384</text>
  
  <!-- 箭头3 -->
  <line x1="585" y1="330" x2="585" y2="360" stroke="#000" stroke-width="1.2" marker-end="url(#arrowhead)"/>
  
  <!-- Conv4: 3x3 conv, 384 -->
  <rect x="420" y="370" width="330" height="60" class="layer-box" rx="3"/>
  <text x="585" y="408" text-anchor="middle" class="text-layer">3x3 conv, 384</text>
  
  <!-- 箭头4 -->
  <line x1="585" y1="430" x2="585" y2="460" stroke="#000" stroke-width="1.2" marker-end="url(#arrowhead)"/>
  
  <!-- Conv5: 3x3 conv, 256, pool/2 -->
  <rect x="420" y="470" width="330" height="60" class="layer-box" rx="3"/>
  <text x="585" y="508" text-anchor="middle" class="text-layer">3x3 conv, 256, pool/2</text>
  
  <!-- 箭头5 -->
  <line x1="585" y1="530" x2="585" y2="560" stroke="#000" stroke-width="1.2" marker-end="url(#arrowhead)"/>
  
  <!-- FC1: fc, 4096 -->
  <rect x="420" y="570" width="330" height="60" class="layer-box" rx="3"/>
  <text x="585" y="608" text-anchor="middle" class="text-layer">fc, 4096</text>
  
  <!-- 箭头6 -->
  <line x1="585" y1="630" x2="585" y2="660" stroke="#000" stroke-width="1.2" marker-end="url(#arrowhead)"/>
  
  <!-- FC2: fc, 4096 -->
  <rect x="420" y="670" width="330" height="60" class="layer-box" rx="3"/>
  <text x="585" y="708" text-anchor="middle" class="text-layer">fc, 4096</text>
  
  <!-- 箭头7 -->
  <line x1="585" y1="730" x2="585" y2="760" stroke="#000" stroke-width="1.2" marker-end="url(#arrowhead)"/>
  
  <!-- FC3: fc, 1000 -->
  <rect x="420" y="770" width="330" height="60" class="layer-box" rx="3"/>
  <text x="585" y="808" text-anchor="middle" class="text-layer">fc, 1000</text>
  
</svg>
